<?xml version="1.0" encoding="utf-8"?>
<!-- Generator: Adobe Illustrator 15.1.0, SVG Export Plug-In . SVG Version: 6.00 Build 0)  -->
<!DOCTYPE svg PUBLIC "-//W3C//DTD SVG 1.1//EN" "http://www.w3.org/Graphics/SVG/1.1/DTD/svg11.dtd">
<svg version="1.1" id="Layer_1" xmlns="http://www.w3.org/2000/svg" xmlns:xlink="http://www.w3.org/1999/xlink" x="0px" y="0px"
	 width="593.616px" height="194px" viewBox="-512.551 -931.768 593.616 194" enable-background="new -512.551 -931.768 593.616 194"
	 xml:space="preserve">
<g>
	<g>
		<g transform="translate(112.499997, 139.857764)">
			<g>
				<path fill="#3B3B5B" d="M-440.061-1000.479c0-6.567,1.411-12.431,4.253-17.598c2.862-5.158,6.83-9.178,11.914-12.042
					c5.105-2.883,10.884-4.335,17.346-4.335c7.883,0,14.63,2.094,20.25,6.273c5.641,4.188,9.409,9.883,11.325,17.092h-17.851
					c-1.326-2.801-3.199-4.926-5.641-6.356c-2.42-1.452-5.178-2.19-8.293-2.19c-5,0-9.052,1.748-12.167,5.222
					c-3.094,3.483-4.63,8.125-4.63,13.935s1.536,10.461,4.63,13.935c3.115,3.485,7.168,5.222,12.167,5.222
					c3.115,0,5.873-0.726,8.293-2.19c2.442-1.452,4.315-3.578,5.641-6.356h17.851c-1.916,7.221-5.684,12.904-11.325,17.051
					c-5.62,4.127-12.368,6.188-20.25,6.188c-6.462,0-12.241-1.431-17.346-4.294c-5.083-2.883-9.051-6.884-11.914-11.999
					C-438.65-988.06-440.061-993.911-440.061-1000.479z"/>
			</g>
		</g>
	</g>
	<g>
		<g transform="translate(139.324752, 139.857764)">
			<g>
				<path fill="#3B3B5B" d="M-367.748-966.335c-5.2,0-9.873-1.105-14.02-3.326c-4.127-2.21-7.389-5.367-9.767-9.473
					c-2.358-4.126-3.536-8.936-3.536-14.439c0-5.411,1.188-10.189,3.578-14.315c2.409-4.146,5.705-7.336,9.893-9.556
					c4.18-2.21,8.853-3.327,14.02-3.327c5.19,0,9.873,1.117,14.063,3.327c4.178,2.22,7.462,5.409,9.852,9.556
					c2.41,4.126,3.62,8.904,3.62,14.315c0,5.45-1.22,10.25-3.663,14.398c-2.441,4.125-5.767,7.304-9.978,9.514
					C-357.875-967.441-362.559-966.335-367.748-966.335z M-367.748-980.356c3.085,0,5.726-1.137,7.916-3.41
					c2.188-2.293,3.283-5.566,3.283-9.808c0-4.231-1.073-7.495-3.2-9.769c-2.104-2.273-4.715-3.41-7.831-3.41
					c-3.146,0-5.767,1.127-7.872,3.368c-2.084,2.252-3.116,5.517-3.116,9.811c0,4.241,1.022,7.515,3.074,9.808
					C-373.421-981.492-370.842-980.356-367.748-980.356z"/>
			</g>
		</g>
	</g>
	<g>
		<g transform="translate(161.749128, 139.857764)">
			<g>
				<path fill="#3B3B5B" d="M-321.584-1020.602c6.201,0,11.137,2.009,14.821,6.019c3.704,4.022,5.557,9.548,5.557,16.589v30.901
					h-16.125v-28.754c0-3.536-0.926-6.283-2.778-8.253c-1.832-1.958-4.284-2.946-7.367-2.946c-3.095,0-5.558,0.988-7.41,2.946
					c-1.832,1.97-2.737,4.717-2.737,8.253v28.754h-16.208v-52.921h16.208v7.031c1.653-2.358,3.874-4.209,6.652-5.558
					C-328.193-1019.907-325.068-1020.602-321.584-1020.602z"/>
			</g>
		</g>
	</g>
	<g>
		<g transform="translate(185.476013, 139.857764)">
			<g>
				<path fill="#3B3B5B" d="M-281.38-1020.602c6.201,0,11.137,2.009,14.821,6.019c3.704,4.022,5.557,9.548,5.557,16.589v30.901
					h-16.125v-28.754c0-3.536-0.926-6.283-2.778-8.253c-1.832-1.958-4.285-2.946-7.367-2.946c-3.095,0-5.558,0.988-7.41,2.946
					c-1.832,1.97-2.737,4.717-2.737,8.253v28.754h-16.208v-52.921h16.208v7.031c1.653-2.358,3.874-4.209,6.652-5.558
					C-287.99-1019.907-284.864-1020.602-281.38-1020.602z"/>
			</g>
		</g>
	</g>
	<g>
		<g transform="translate(209.202898, 139.857764)">
			<g>
				<path fill="#3B3B5B" d="M-223.536-994.416c0,1.516-0.104,3.104-0.294,4.758h-36.712c0.252,3.284,1.306,5.799,3.157,7.535
					c1.875,1.748,4.18,2.61,6.905,2.61c4.041,0,6.842-1.705,8.421-5.137h17.26c-0.872,3.485-2.473,6.611-4.8,9.39
					c-2.305,2.779-5.198,4.968-8.671,6.568c-3.454,1.578-7.348,2.356-11.663,2.356c-5.167,0-9.789-1.105-13.851-3.326
					c-4.041-2.21-7.199-5.367-9.473-9.473c-2.273-4.126-3.41-8.936-3.41-14.439c0-5.494,1.115-10.294,3.367-14.398
					c2.242-4.095,5.39-7.253,9.431-9.473c4.042-2.21,8.684-3.327,13.936-3.327c5.137,0,9.693,1.085,13.684,3.242
					c3.979,2.138,7.093,5.2,9.347,9.179C-224.661-1004.362-223.536-999.721-223.536-994.416z M-240.164-998.669
					c0-2.778-0.959-4.989-2.864-6.65c-1.884-1.653-4.24-2.484-7.072-2.484c-2.726,0-5.03,0.799-6.905,2.399
					c-1.852,1.579-3.01,3.82-3.452,6.735H-240.164z"/>
			</g>
		</g>
	</g>
	<g>
		<g transform="translate(230.888009, 139.857764)">
			<g>
				<path fill="#3B3B5B" d="M-239.922-993.573c0-5.494,1.115-10.294,3.369-14.398c2.241-4.095,5.367-7.253,9.388-9.473
					c4.01-2.21,8.61-3.327,13.809-3.327c6.62,0,12.168,1.748,16.63,5.222c4.462,3.483,7.389,8.377,8.8,14.692h-17.262
					c-1.463-4.042-4.284-6.063-8.462-6.063c-2.979,0-5.347,1.158-7.115,3.451c-1.768,2.306-2.652,5.602-2.652,9.896
					c0,4.326,0.885,7.642,2.652,9.935c1.769,2.305,4.137,3.453,7.115,3.453c4.178,0,6.999-2.021,8.462-6.063h17.262
					c-1.411,6.209-4.357,11.071-8.841,14.608c-4.496,3.536-10.021,5.305-16.589,5.305c-5.198,0-9.799-1.105-13.809-3.326
					c-4.021-2.21-7.146-5.367-9.388-9.473C-238.807-983.26-239.922-988.069-239.922-993.573z"/>
			</g>
		</g>
	</g>
	<g>
		<g transform="translate(252.185886, 139.857764)">
			<g>
				<path fill="#3B3B5B" d="M-171.121-980.86v13.768h-8.253c-5.873,0-10.439-1.432-13.724-4.295
					c-3.283-2.883-4.926-7.588-4.926-14.103v-21.051h-6.484v-13.473h6.484v-12.924h16.208v12.924h10.609v13.473h-10.609v21.219
					c0,1.601,0.379,2.757,1.137,3.451c0.758,0.676,2.021,1.011,3.789,1.011H-171.121z"/>
			</g>
		</g>
	</g>
	<g>
		<g transform="translate(115.499997, 158.82831)">
			<g>
				<path fill="#3B3B5B" d="M-429.926-941.012v-8.166l-7.704-14.861h4.758l5.094,10.65l5.094-10.65h4.673l-7.705,14.861v8.166
					H-429.926z"/>
			</g>
		</g>
	</g>
	<g>
		<g transform="translate(123.124508, 158.82831)">
			<g>
				<path fill="#3B3B5B" d="M-415.196-940.633c-1.599,0-3.031-0.357-4.294-1.051c-1.242-0.727-2.231-1.736-2.989-3.031
					c-0.737-1.285-1.095-2.779-1.095-4.463c0-1.686,0.358-3.156,1.095-4.42c0.758-1.285,1.768-2.295,3.031-3.031
					c1.263-0.727,2.673-1.096,4.251-1.096c1.568,0,2.989,0.369,4.252,1.096c1.263,0.736,2.253,1.746,2.99,3.031
					c0.727,1.264,1.094,2.734,1.094,4.42c0,1.684-0.368,3.178-1.094,4.463c-0.737,1.295-1.748,2.305-3.031,3.031
					C-412.248-940.991-413.659-940.633-415.196-940.633z M-415.196-944.252c1.095,0,2.032-0.4,2.821-1.221
					c0.81-0.844,1.221-2.074,1.221-3.705c0-1.6-0.411-2.801-1.221-3.621c-0.79-0.842-1.727-1.264-2.821-1.264
					c-1.094,0-2.052,0.422-2.862,1.264c-0.79,0.82-1.179,2.021-1.179,3.621c0,1.631,0.39,2.861,1.179,3.705
					C-417.248-944.653-416.29-944.252-415.196-944.252z"/>
			</g>
		</g>
	</g>
	<g>
		<g transform="translate(130.517242, 158.82831)">
			<g>
				<path fill="#3B3B5B" d="M-404.395-940.633c-2.053,0-3.622-0.631-4.716-1.895c-1.094-1.262-1.642-3.125-1.642-5.598v-9.18h4.168
					v8.801c0,1.41,0.273,2.484,0.842,3.242c0.559,0.736,1.453,1.094,2.695,1.094c1.147,0,2.104-0.398,2.862-1.221
					c0.758-0.842,1.137-2,1.137-3.494v-8.422h4.209v16.293h-3.704l-0.336-2.777c-0.505,0.99-1.242,1.758-2.189,2.316
					C-402.027-940.916-403.132-940.633-404.395-940.633z"/>
			</g>
		</g>
	</g>
	<g>
		<g transform="translate(137.934375, 158.82831)">
			<g>
				<path fill="#3B3B5B" d="M-397.93-941.012v-16.293h3.745l0.379,3.031c0.588-1.029,1.39-1.863,2.4-2.482
					c1.029-0.643,2.242-0.969,3.619-0.969v4.463h-1.176c-0.928,0-1.761,0.146-2.487,0.422c-0.702,0.283-1.263,0.777-1.681,1.473
					c-0.403,0.705-0.593,1.672-0.593,2.904v7.451H-397.93z"/>
			</g>
		</g>
	</g>
	<g>
		<g transform="translate(145.668681, 158.82831)">
			<g>
				<path fill="#3B3B5B" d="M-378.049-941.012l-8.418-23.027h4.503l6.485,18.734l6.567-18.734h4.421l-8.423,23.027H-378.049z"/>
			</g>
		</g>
	</g>
	<g>
		<g transform="translate(154.195936, 158.82831)">
			<g>
				<path fill="#3B3B5B" d="M-362.547-940.633c-1.601,0-3.031-0.357-4.294-1.051c-1.243-0.727-2.232-1.736-2.99-3.031
					c-0.736-1.285-1.095-2.779-1.095-4.463c0-1.686,0.358-3.156,1.095-4.42c0.758-1.285,1.769-2.295,3.031-3.031
					c1.263-0.727,2.674-1.096,4.253-1.096c1.567,0,2.988,0.369,4.251,1.096c1.263,0.736,2.254,1.746,2.989,3.031
					c0.727,1.264,1.096,2.734,1.096,4.42c0,1.684-0.369,3.178-1.096,4.463c-0.735,1.295-1.746,2.305-3.031,3.031
					C-359.6-940.991-361.011-940.633-362.547-940.633z M-362.547-944.252c1.094,0,2.03-0.4,2.82-1.221
					c0.811-0.844,1.222-2.074,1.222-3.705c0-1.6-0.411-2.801-1.222-3.621c-0.79-0.842-1.727-1.264-2.82-1.264
					c-1.096,0-2.053,0.422-2.863,1.264c-0.79,0.82-1.179,2.021-1.179,3.621c0,1.631,0.389,2.861,1.179,3.705
					C-364.599-944.653-363.642-944.252-362.547-944.252z"/>
			</g>
		</g>
	</g>
	<g>
		<g transform="translate(161.58867, 158.82831)">
			<g>
				<path fill="#3B3B5B" d="M-355.576-959.872c-0.79,0-1.433-0.221-1.938-0.674c-0.485-0.441-0.714-1.021-0.714-1.727
					c0-0.695,0.229-1.273,0.714-1.727c0.506-0.441,1.148-0.674,1.938-0.674c0.758,0,1.365,0.232,1.851,0.674
					c0.506,0.453,0.758,1.031,0.758,1.727c0,0.705-0.252,1.285-0.758,1.727C-354.211-960.092-354.818-959.872-355.576-959.872z
					 M-357.684-941.012v-16.293h4.212v16.293H-357.684z"/>
			</g>
		</g>
	</g>
	<g>
		<g transform="translate(164.845865, 158.82831)">
			<g>
				<path fill="#3B3B5B" d="M-344.332-940.633c-1.686,0-3.158-0.357-4.421-1.051c-1.263-0.727-2.273-1.736-3.031-3.031
					c-0.738-1.285-1.096-2.779-1.096-4.463c0-1.654,0.357-3.125,1.096-4.42c0.758-1.285,1.769-2.295,3.031-3.031
					c1.263-0.727,2.735-1.096,4.421-1.096c2.072,0,3.809,0.547,5.22,1.643c1.431,1.096,2.336,2.598,2.737,4.506h-4.421
					c-0.232-0.813-0.663-1.443-1.307-1.895c-0.651-0.443-1.409-0.676-2.273-0.676c-1.178,0-2.179,0.453-2.987,1.348
					c-0.79,0.875-1.181,2.084-1.181,3.621c0,1.58,0.391,2.799,1.181,3.664c0.809,0.871,1.81,1.303,2.987,1.303
					c0.864,0,1.622-0.211,2.273-0.631c0.644-0.441,1.074-1.074,1.307-1.895h4.421c-0.401,1.854-1.307,3.348-2.737,4.463
					C-340.524-941.18-342.26-940.633-344.332-940.633z"/>
			</g>
		</g>
	</g>
	<g>
		<g transform="translate(172.165402, 158.82831)">
			<g>
				<path fill="#3B3B5B" d="M-332.014-940.633c-1.664,0-3.116-0.357-4.379-1.051c-1.264-0.695-2.262-1.684-2.988-2.947
					c-0.738-1.262-1.095-2.736-1.095-4.42c0-1.686,0.347-3.17,1.052-4.465c0.726-1.314,1.727-2.336,2.989-3.072
					c1.264-0.758,2.747-1.137,4.462-1.137c1.601,0,3,0.357,4.212,1.053c1.231,0.705,2.188,1.672,2.861,2.904
					c0.694,1.211,1.054,2.557,1.054,4.041c0,0.254,0,0.506,0,0.758c0,0.254-0.021,0.537-0.043,0.844h-12.419
					c0.104,1.262,0.559,2.264,1.348,2.99c0.809,0.703,1.778,1.051,2.905,1.051c0.862,0,1.578-0.18,2.146-0.547
					c0.588-0.391,1.021-0.896,1.305-1.516h4.294c-0.315,1.043-0.83,1.979-1.557,2.82c-0.707,0.844-1.579,1.506-2.611,1.98
					C-329.52-940.873-330.698-940.633-332.014-940.633z M-331.973-954.315c-1.042,0-1.957,0.295-2.734,0.885
					c-0.79,0.59-1.295,1.475-1.516,2.652h8.124c-0.063-1.064-0.451-1.916-1.178-2.568
					C-330.015-953.989-330.909-954.315-331.973-954.315z"/>
			</g>
		</g>
	</g>
	<g>
		<g transform="translate(179.460541, 158.82831)">
			<g>
				<path fill="#3B3B5B" d="M-329.253-937.178l1.854-8.211h4.083l-3.157,8.211H-329.253z"/>
			</g>
		</g>
	</g>
	<g>
		<g transform="translate(185.181969, 158.82831)">
			<g>
				<path fill="#3B3B5B" d="M-307.012-940.633c-2.305,0-4.315-0.482-6.019-1.471c-1.717-1.012-3.063-2.412-4.042-4.213
					c-0.99-1.787-1.474-3.852-1.474-6.188c0-2.357,0.483-4.422,1.474-6.189c0.979-1.787,2.325-3.199,4.042-4.209
					c1.703-1.012,3.714-1.516,6.019-1.516c2.296,0,4.305,0.504,6.021,1.516c1.736,1.01,3.083,2.422,4.042,4.209
					c0.979,1.768,1.472,3.832,1.472,6.189c0,2.336-0.493,4.4-1.472,6.188c-0.959,1.801-2.306,3.201-4.042,4.213
					C-302.707-941.116-304.716-940.633-307.012-940.633z M-307.012-944.377c2.188,0,3.926-0.727,5.22-2.191
					c1.316-1.453,1.979-3.43,1.979-5.936c0-2.527-0.663-4.504-1.979-5.938c-1.294-1.451-3.031-2.188-5.22-2.188
					s-3.946,0.736-5.263,2.188c-1.324,1.434-1.978,3.41-1.978,5.938c0,2.506,0.653,4.482,1.978,5.936
					C-310.958-945.104-309.201-944.377-307.012-944.377z"/>
			</g>
		</g>
	</g>
	<g>
		<g transform="translate(194.831558, 158.82831)">
			<g>
				<path fill="#3B3B5B" d="M-295.417-940.633c-2.053,0-3.624-0.631-4.717-1.895c-1.094-1.262-1.642-3.125-1.642-5.598v-9.18h4.168
					v8.801c0,1.41,0.271,2.484,0.84,3.242c0.561,0.736,1.453,1.094,2.696,1.094c1.148,0,2.104-0.398,2.861-1.221
					c0.758-0.842,1.137-2,1.137-3.494v-8.422h4.212v16.293h-3.707l-0.335-2.777c-0.505,0.99-1.243,1.758-2.19,2.316
					C-293.048-940.916-294.154-940.633-295.417-940.633z"/>
			</g>
		</g>
	</g>
	<g>
		<g transform="translate(202.24869, 158.82831)">
			<g>
				<path fill="#3B3B5B" d="M-288.955-941.012v-16.293h3.748l0.379,3.031c0.588-1.029,1.389-1.863,2.399-2.482
					c1.03-0.643,2.242-0.969,3.619-0.969v4.463h-1.178c-0.926,0-1.759,0.146-2.484,0.422c-0.705,0.283-1.264,0.777-1.684,1.473
					c-0.4,0.705-0.59,1.672-0.59,2.904v7.451H-288.955z"/>
			</g>
		</g>
	</g>
	<g>
		<g transform="translate(209.982996, 158.82831)">
			<g>
				<path fill="#3B3B5B" d="M-275.764-941.012v-23.027h8.504c1.853,0,3.378,0.314,4.588,0.926c1.2,0.621,2.106,1.473,2.696,2.568
					c0.588,1.074,0.884,2.262,0.884,3.578c0,1.295-0.296,2.473-0.884,3.537c-0.568,1.041-1.453,1.885-2.652,2.525
					c-1.181,0.654-2.728,0.969-4.632,0.969h-4.294v8.924H-275.764z M-271.554-953.346h4.041c1.453,0,2.505-0.314,3.158-0.969
					c0.673-0.641,1.01-1.525,1.01-2.652c0-1.115-0.337-1.998-1.01-2.652c-0.653-0.641-1.705-0.969-3.158-0.969h-4.041V-953.346z"/>
			</g>
		</g>
	</g>
	<g>
		<g transform="translate(217.38793, 158.82831)">
			<g>
				<path fill="#3B3B5B" d="M-263.302-941.012v-16.293h3.747l0.379,3.031c0.589-1.029,1.39-1.863,2.4-2.482
					c1.03-0.643,2.241-0.969,3.619-0.969v4.463h-1.178c-0.926,0-1.759,0.146-2.485,0.422c-0.704,0.283-1.263,0.777-1.683,1.473
					c-0.401,0.705-0.591,1.672-0.591,2.904v7.451H-263.302z"/>
			</g>
		</g>
	</g>
	<g>
		<g transform="translate(222.218824, 158.82831)">
			<g>
				<path fill="#3B3B5B" d="M-252.843-959.872c-0.789,0-1.431-0.221-1.936-0.674c-0.485-0.441-0.717-1.021-0.717-1.727
					c0-0.695,0.231-1.273,0.717-1.727c0.505-0.441,1.146-0.674,1.936-0.674c0.758,0,1.368,0.232,1.854,0.674
					c0.505,0.453,0.758,1.031,0.758,1.727c0,0.705-0.253,1.285-0.758,1.727C-251.475-960.092-252.085-959.872-252.843-959.872z
					 M-254.948-941.012v-16.293h4.211v16.293H-254.948z"/>
			</g>
		</g>
	</g>
	<g>
		<g transform="translate(225.476018, 158.82831)">
			<g>
				<path fill="#3B3B5B" d="M-241.766-940.633c-1.599,0-3.031-0.357-4.295-1.051c-1.243-0.727-2.229-1.736-2.987-3.031
					c-0.738-1.285-1.098-2.779-1.098-4.463c0-1.686,0.359-3.156,1.098-4.42c0.758-1.285,1.768-2.295,3.031-3.031
					c1.263-0.727,2.672-1.096,4.251-1.096c1.566,0,2.987,0.369,4.25,1.096c1.264,0.736,2.254,1.746,2.992,3.031
					c0.727,1.264,1.094,2.734,1.094,4.42c0,1.684-0.367,3.178-1.094,4.463c-0.738,1.295-1.748,2.305-3.031,3.031
					C-238.818-940.991-240.231-940.633-241.766-940.633z M-241.766-944.252c1.093,0,2.032-0.4,2.821-1.221
					c0.81-0.844,1.22-2.074,1.22-3.705c0-1.6-0.41-2.801-1.22-3.621c-0.789-0.842-1.729-1.264-2.821-1.264
					c-1.094,0-2.053,0.422-2.862,1.264c-0.789,0.82-1.18,2.021-1.18,3.621c0,1.631,0.391,2.861,1.18,3.705
					C-243.819-944.653-242.86-944.252-241.766-944.252z"/>
			</g>
		</g>
	</g>
	<g>
		<g transform="translate(232.868752, 158.82831)">
			<g>
				<path fill="#3B3B5B" d="M-237.07-941.012v-16.293h3.746l0.379,3.031c0.59-1.029,1.389-1.863,2.399-2.482
					c1.032-0.643,2.242-0.969,3.621-0.969v4.463h-1.178c-0.928,0-1.759,0.146-2.484,0.422c-0.705,0.283-1.264,0.777-1.684,1.473
					c-0.4,0.705-0.59,1.672-0.59,2.904v7.451H-237.07z"/>
			</g>
		</g>
	</g>
	<g>
		<g transform="translate(237.699646, 158.82831)">
			<g>
				<path fill="#3B3B5B" d="M-226.612-959.872c-0.79,0-1.432-0.221-1.937-0.674c-0.485-0.441-0.716-1.021-0.716-1.727
					c0-0.695,0.23-1.273,0.716-1.727c0.505-0.441,1.146-0.674,1.937-0.674c0.758,0,1.367,0.232,1.853,0.674
					c0.505,0.453,0.758,1.031,0.758,1.727c0,0.705-0.253,1.285-0.758,1.727C-225.245-960.092-225.854-959.872-226.612-959.872z
					 M-228.718-941.012v-16.293h4.212v16.293H-228.718z"/>
			</g>
		</g>
	</g>
	<g>
		<g transform="translate(240.95684, 158.82831)">
			<g>
				<path fill="#3B3B5B" d="M-216.124-941.012c-1.717,0-3.095-0.398-4.127-1.219c-1.011-0.844-1.516-2.326-1.516-4.465v-7.113
					h-2.778v-3.496h2.778l0.505-4.377h3.705v4.377h4.42v3.496h-4.42v7.158c0,0.789,0.169,1.336,0.505,1.641
					c0.337,0.285,0.928,0.42,1.769,0.42h2.021v3.578H-216.124z"/>
			</g>
		</g>
	</g>
	<g>
		<g transform="translate(246.092708, 158.82831)">
			<g>
				<path fill="#3B3B5B" d="M-212.643-933.768l3.789-8.336h-0.968l-6.358-15.201h4.547l4.591,11.453l4.756-11.453h4.464
					l-10.356,23.537H-212.643z"/>
			</g>
		</g>
	</g>
</g>
<g>
	<g>
		<defs>
			<rect id="SVGID_1_" x="-449.231" y="-931.768" width="104.41" height="194"/>
		</defs>
		<clipPath id="SVGID_2_">
			<use xlink:href="#SVGID_1_"  overflow="visible"/>
		</clipPath>
		<g clip-path="url(#SVGID_2_)">
			<path fill="#EB6C56" d="M-379.134-931.768c-4.189,0-5.999,2.631-7.494,5.326l-62.225,110.344l39.732,72.898
				c1.379,2.484,3.516,5.336,7.81,5.336h27.934c1.684,0,3.031-0.641,3.716-1.82c0.736-1.201,0.715-2.779-0.063-4.326l-39.428-71.992
				c-0.031-0.064-0.031-0.137,0-0.189l61.931-109.482c0.769-1.538,0.79-3.116,0.052-4.316c-0.715-1.157-2.042-1.778-3.726-1.778
				H-379.134z"/>
		</g>
	</g>
	<g>
		<defs>
			<rect id="SVGID_3_" x="-512.551" y="-894.604" width="71.403" height="99.693"/>
		</defs>
		<clipPath id="SVGID_4_">
			<use xlink:href="#SVGID_3_"  overflow="visible"/>
		</clipPath>
		<g clip-path="url(#SVGID_4_)">
			<path fill="#3B3B5B" d="M-496.648-893.509c-1.683,0-3.009,0.631-3.715,1.778c-0.737,1.2-0.715,2.779,0.052,4.326l19.04,32.649
				c0.031,0.063,0.031,0.126,0,0.189l-29.796,52.478c-0.779,1.547-0.79,3.117-0.052,4.316c0.715,1.146,2.03,1.787,3.715,1.787
				h28.039c4.188,0,6.073-2.756,7.504-5.336l30.303-53.34c-0.126-0.189-19.314-33.512-19.314-33.512
				c-1.389-2.484-3.525-5.336-7.809-5.336H-496.648z"/>
		</g>
	</g>
</g>
</svg>
