<?xml version="1.0" encoding="utf-8"?>
<!-- Generator: Adobe Illustrator 15.1.0, SVG Export Plug-In . SVG Version: 6.00 Build 0)  -->
<!DOCTYPE svg PUBLIC "-//W3C//DTD SVG 1.1//EN" "http://www.w3.org/Graphics/SVG/1.1/DTD/svg11.dtd">
<svg version="1.1" id="Layer_1" xmlns="http://www.w3.org/2000/svg" xmlns:xlink="http://www.w3.org/1999/xlink" x="0px" y="0px"
	 width="903.4px" height="240.268px" viewBox="0 0 903.4 240.268" enable-background="new 0 0 903.4 240.268" xml:space="preserve">
<path fill-rule="evenodd" clip-rule="evenodd" fill="#FFFFFF" d="M19.679,93.291C8.302,96.733,0,107.312,0,119.794
	c0,12.485,8.302,23.063,19.679,26.506c6.703,29.581,24.292,55.04,48.397,71.828c17.65,12.3,35.915,16.852,49.506,16.729v-13.716
	v-3.012c-16.296,0-23.247-2.768-37.39-11.992c-28.166-18.387-46.738-50.182-46.738-86.342c0-56.944,46.122-103.066,103.068-103.066
	c56.885,0,103.007,46.122,103.007,103.066c0,9.165-1.168,18.081-3.444,26.506h17.219c11.377-3.442,19.679-14.021,19.679-26.506
	c0-12.482-8.302-23.061-19.679-26.503C241.251,39.912,193.53,0,136.522,0C79.453,0,31.732,39.912,19.679,93.291L19.679,93.291z"/>
<path fill-rule="evenodd" clip-rule="evenodd" fill="#FFFFFF" d="M174.65,120.227c8.056,0,14.636-6.58,14.636-14.637
	c0-8.055-6.58-14.636-14.636-14.636c-8.057,0-14.637,6.581-14.637,14.636C160.014,113.647,166.594,120.227,174.65,120.227
	L174.65,120.227z"/>
<path fill-rule="evenodd" clip-rule="evenodd" fill="#FFFFFF" d="M98.333,120.227c8.056,0,14.637-6.58,14.637-14.637
	c0-8.055-6.581-14.636-14.637-14.636c-8.056,0-14.637,6.581-14.637,14.636C83.696,113.647,90.277,120.227,98.333,120.227
	L98.333,120.227z"/>
<path fill-rule="evenodd" clip-rule="evenodd" fill="#E41E26" d="M123.116,235.84c3.752,2.767,9.163,4.428,15.19,4.428
	c11.438,0,20.663-6.15,20.663-13.775c0-7.627-9.225-13.836-20.663-13.836c-6.027,0-11.438,1.723-15.19,4.428V235.84z"/>
<path fill-rule="evenodd" clip-rule="evenodd" fill="#FFFFFF" d="M185.35,168.563H87.633c11.991,15.127,29.456,24.659,48.889,24.659
	C155.956,193.222,173.358,183.69,185.35,168.563L185.35,168.563z"/>
<path fill="#E41E26" d="M351.659,52.954l6.617,11.305c1.93,3.446,3.723,6.755,5.515,10.064h0.276
	c1.792-3.723,3.446-7.031,5.239-10.34l5.928-11.029h22.747l-22.196,32.122l22.472,35.293h-23.712l-6.755-12.132
	c-1.93-3.309-3.584-6.756-5.239-10.202h-0.414c-1.654,3.585-3.447,6.894-5.101,10.202l-6.342,12.132h-23.023l22.885-34.328
	l-22.334-33.087H351.659z"/>
<path fill="#FFFFFF" d="M476.014,117.887c-3.723,1.792-12.546,3.998-23.713,3.998c-32.122,0-48.666-20.128-48.666-46.598
	c0-31.709,22.61-49.218,50.734-49.218c10.891,0,19.163,2.068,22.885,4.137l-4.411,16.543c-4.136-1.792-10.064-3.446-17.646-3.446
	c-16.544,0-29.503,10.063-29.503,30.743c0,18.611,11.029,30.33,29.641,30.33c6.479,0,13.373-1.24,17.646-3.033L476.014,117.887z"/>
<path fill="#FFFFFF" d="M553.219,85.903c0,24.678-17.509,35.982-35.569,35.982c-19.714,0-34.879-12.959-34.879-34.741
	c0-21.921,14.338-35.845,36.12-35.845C539.432,51.299,553.219,65.5,553.219,85.903z M504.416,86.592
	c0,11.58,4.825,20.266,13.786,20.266c8.271,0,13.373-8.134,13.373-20.403c0-9.927-3.86-20.128-13.373-20.128
	C508.275,66.327,504.416,76.667,504.416,86.592z"/>
<path fill="#FFFFFF" d="M566.179,74.46c0-8.41-0.275-15.44-0.551-21.507h18.197l0.966,9.375h0.413
	c2.758-4.412,9.513-10.892,20.817-10.892c13.786,0,24.126,9.237,24.126,29.089v39.843h-20.955V83.007
	c0-8.685-3.033-14.613-10.615-14.613c-5.79,0-9.237,3.998-10.754,7.858c-0.551,1.379-0.688,3.309-0.688,5.239v38.877h-20.956V74.46z
	"/>
<path fill="#FFFFFF" d="M646.97,74.46c0-8.41-0.275-15.44-0.551-21.507h18.197l0.966,9.375h0.413
	c2.758-4.412,9.513-10.892,20.817-10.892c13.786,0,24.126,9.237,24.126,29.089v39.843h-20.955V83.007
	c0-8.685-3.033-14.613-10.615-14.613c-5.79,0-9.237,3.998-10.754,7.858c-0.551,1.379-0.688,3.309-0.688,5.239v38.877H646.97V74.46z"
	/>
<path fill="#FFFFFF" d="M743.891,93.347c0.551,8.686,9.236,12.821,19.024,12.821c7.169,0,12.959-0.965,18.612-2.895l2.757,14.199
	c-6.894,2.896-15.303,4.274-24.401,4.274c-22.886,0-35.982-13.235-35.982-34.328c0-17.095,10.615-35.982,34.052-35.982
	c21.782,0,30.055,16.957,30.055,33.639c0,3.584-0.414,6.755-0.689,8.271H743.891z M768.568,79.009
	c0-5.101-2.205-13.648-11.855-13.648c-8.823,0-12.408,8.135-12.96,13.648H768.568z"/>
<path fill="#FFFFFF" d="M851.152,118.577c-3.723,1.792-10.754,3.171-18.75,3.171c-21.782,0-35.706-13.373-35.706-34.466
	c0-19.715,13.511-35.845,38.602-35.845c5.515,0,11.58,0.965,15.992,2.619l-3.308,15.579c-2.481-1.104-6.204-2.068-11.719-2.068
	c-11.029,0-18.198,7.858-18.061,18.888c0,12.27,8.272,18.887,18.475,18.887c4.963,0,8.823-0.827,11.993-2.205L851.152,118.577z"/>
<path fill="#FFFFFF" d="M888.373,34.755v18.198H903.4v15.44h-15.027v24.402c0,8.134,2.068,11.855,8.271,11.855
	c2.896,0,4.273-0.138,6.205-0.551l0.138,15.854c-2.62,0.966-7.722,1.793-13.511,1.793c-6.756,0-12.408-2.344-15.855-5.79
	c-3.859-3.998-5.789-10.479-5.789-19.99V68.394h-8.961v-15.44h8.961V40.408L888.373,34.755z"/>
<g>
	<path fill="#FFFFFF" d="M340.817,200.999v-17.159l-12.84-23.279h6l5.7,11.16c1.5,3.06,2.76,5.52,4.02,8.339h0.12
		c1.08-2.64,2.52-5.279,4.08-8.339l5.82-11.16h5.88l-13.5,23.219v17.22H340.817z"/>
	<path fill="#FFFFFF" d="M385.816,186.239c0,10.74-7.5,15.42-14.459,15.42c-7.799,0-13.919-5.76-13.919-14.939
		c0-9.66,6.42-15.359,14.399-15.359C380.176,171.36,385.816,177.419,385.816,186.239z M362.837,186.54
		c0,6.359,3.6,11.159,8.76,11.159c5.04,0,8.819-4.74,8.819-11.279c0-4.92-2.459-11.1-8.7-11.1
		C365.537,175.32,362.837,181.08,362.837,186.54z"/>
	<path fill="#FFFFFF" d="M416.776,193.019c0,3.06,0.06,5.699,0.239,7.979h-4.68l-0.3-4.74h-0.12c-1.32,2.341-4.439,5.4-9.6,5.4
		c-4.56,0-10.02-2.58-10.02-12.72v-16.979h5.28v16.02c0,5.52,1.74,9.3,6.48,9.3c3.54,0,6-2.46,6.959-4.86
		c0.3-0.72,0.48-1.68,0.48-2.699v-17.76h5.28V193.019z"/>
	<path fill="#FFFFFF" d="M425.537,181.019c0-3.42-0.06-6.359-0.24-9.06h4.62l0.24,5.76h0.18c1.32-3.899,4.56-6.359,8.1-6.359
		c0.54,0,0.96,0.06,1.439,0.12v4.979c-0.539-0.12-1.079-0.12-1.8-0.12c-3.72,0-6.359,2.76-7.079,6.72
		c-0.12,0.72-0.181,1.62-0.181,2.46v15.479h-5.279V181.019z"/>
	<path fill="#FFFFFF" d="M464.776,200.999l-13.26-40.438h5.7l6.3,19.919c1.68,5.46,3.18,10.38,4.319,15.12h0.12
		c1.141-4.68,2.76-9.78,4.62-15.06l6.84-19.979h5.579l-14.459,40.438H464.776z"/>
	<path fill="#FFFFFF" d="M513.496,186.239c0,10.74-7.5,15.42-14.46,15.42c-7.8,0-13.919-5.76-13.919-14.939
		c0-9.66,6.419-15.359,14.399-15.359C507.855,171.36,513.496,177.419,513.496,186.239z M490.516,186.54
		c0,6.359,3.6,11.159,8.76,11.159c5.04,0,8.819-4.74,8.819-11.279c0-4.92-2.46-11.1-8.699-11.1
		C493.216,175.32,490.516,181.08,490.516,186.54z"/>
	<path fill="#FFFFFF" d="M526.036,163.8c0,1.8-1.26,3.239-3.36,3.239c-1.92,0-3.18-1.439-3.18-3.239s1.32-3.3,3.3-3.3
		C524.715,160.5,526.036,161.94,526.036,163.8z M520.156,200.999v-29.039h5.279v29.039H520.156z"/>
	<path fill="#FFFFFF" d="M554.895,199.979c-1.38,0.659-4.439,1.68-8.34,1.68c-8.76,0-14.459-5.94-14.459-14.819
		c0-8.939,6.119-15.479,15.599-15.479c3.12,0,5.88,0.78,7.32,1.56l-1.2,4.021c-1.26-0.66-3.24-1.38-6.12-1.38
		c-6.659,0-10.259,4.979-10.259,10.979c0,6.72,4.319,10.859,10.079,10.859c3,0,4.979-0.72,6.479-1.38L554.895,199.979z"/>
	<path fill="#FFFFFF" d="M563.656,187.439c0.12,7.14,4.62,10.08,9.96,10.08c3.78,0,6.12-0.66,8.04-1.5l0.96,3.779
		c-1.86,0.84-5.101,1.86-9.72,1.86c-8.939,0-14.279-5.94-14.279-14.699c0-8.76,5.159-15.6,13.619-15.6
		c9.54,0,11.999,8.279,11.999,13.619c0,1.08-0.06,1.86-0.18,2.46H563.656z M579.135,183.66c0.061-3.301-1.38-8.521-7.319-8.521
		c-5.399,0-7.68,4.86-8.1,8.521H579.135z"/>
	<path fill="#FFFFFF" d="M586.636,208.438c1.32-3.6,2.939-10.02,3.6-14.399l5.88-0.6c-1.439,5.1-4.08,11.76-5.76,14.579
		L586.636,208.438z"/>
	<path fill="#FFFFFF" d="M649.933,180.359c0,13.86-8.459,21.3-18.779,21.3c-10.739,0-18.179-8.34-18.179-20.579
		c0-12.84,7.92-21.239,18.719-21.239C642.793,159.84,649.933,168.3,649.933,180.359z M618.495,180.959
		c0,8.699,4.68,16.439,12.959,16.439c8.28,0,12.96-7.62,12.96-16.8c0-8.1-4.2-16.499-12.899-16.499S618.495,172.14,618.495,180.959z
		"/>
	<path fill="#FFFFFF" d="M681.012,193.019c0,3.06,0.061,5.699,0.24,7.979h-4.68l-0.3-4.74h-0.12c-1.32,2.341-4.44,5.4-9.6,5.4
		c-4.561,0-10.02-2.58-10.02-12.72v-16.979h5.279v16.02c0,5.52,1.74,9.3,6.479,9.3c3.54,0,6-2.46,6.96-4.86
		c0.3-0.72,0.48-1.68,0.48-2.699v-17.76h5.279V193.019z"/>
	<path fill="#FFFFFF" d="M689.773,181.019c0-3.42-0.06-6.359-0.24-9.06h4.62l0.24,5.76h0.18c1.32-3.899,4.56-6.359,8.1-6.359
		c0.54,0,0.96,0.06,1.439,0.12v4.979c-0.539-0.12-1.079-0.12-1.8-0.12c-3.72,0-6.359,2.76-7.079,6.72
		c-0.12,0.72-0.181,1.62-0.181,2.46v15.479h-5.279V181.019z"/>
	<path fill="#FFFFFF" d="M722.292,161.041c2.521-0.42,5.82-0.78,10.02-0.78c5.16,0,8.94,1.2,11.34,3.359
		c2.16,1.92,3.54,4.86,3.54,8.46c0,3.66-1.08,6.54-3.12,8.64c-2.819,2.94-7.26,4.44-12.359,4.44c-1.56,0-3-0.061-4.2-0.36v16.199
		h-5.22V161.041z M727.512,180.54c1.141,0.3,2.58,0.42,4.32,0.42c6.3,0,10.14-3.12,10.14-8.58c0-5.399-3.84-7.979-9.54-7.979
		c-2.279,0-4.02,0.18-4.92,0.42V180.54z"/>
	<path fill="#FFFFFF" d="M753.073,181.019c0-3.42-0.061-6.359-0.24-9.06h4.62l0.24,5.76h0.18c1.32-3.899,4.56-6.359,8.1-6.359
		c0.54,0,0.96,0.06,1.44,0.12v4.979c-0.54-0.12-1.08-0.12-1.801-0.12c-3.72,0-6.359,2.76-7.079,6.72
		c-0.12,0.72-0.181,1.62-0.181,2.46v15.479h-5.279V181.019z"/>
	<path fill="#FFFFFF" d="M778.812,163.8c0,1.8-1.26,3.239-3.36,3.239c-1.92,0-3.18-1.439-3.18-3.239s1.32-3.3,3.3-3.3
		C777.492,160.5,778.812,161.94,778.812,163.8z M772.932,200.999v-29.039h5.279v29.039H772.932z"/>
	<path fill="#FFFFFF" d="M813.251,186.239c0,10.74-7.5,15.42-14.46,15.42c-7.8,0-13.919-5.76-13.919-14.939
		c0-9.66,6.419-15.359,14.399-15.359C807.611,171.36,813.251,177.419,813.251,186.239z M790.272,186.54
		c0,6.359,3.6,11.159,8.76,11.159c5.04,0,8.819-4.74,8.819-11.279c0-4.92-2.46-11.1-8.699-11.1
		C792.972,175.32,790.272,181.08,790.272,186.54z"/>
	<path fill="#FFFFFF" d="M819.912,181.019c0-3.42-0.06-6.359-0.24-9.06h4.62l0.24,5.76h0.18c1.32-3.899,4.56-6.359,8.1-6.359
		c0.54,0,0.96,0.06,1.439,0.12v4.979c-0.539-0.12-1.079-0.12-1.8-0.12c-3.72,0-6.359,2.76-7.079,6.72
		c-0.12,0.72-0.181,1.62-0.181,2.46v15.479h-5.279V181.019z"/>
	<path fill="#FFFFFF" d="M845.651,163.8c0,1.8-1.26,3.239-3.36,3.239c-1.92,0-3.18-1.439-3.18-3.239s1.32-3.3,3.3-3.3
		C844.331,160.5,845.651,161.94,845.651,163.8z M839.771,200.999v-29.039h5.279v29.039H839.771z"/>
	<path fill="#FFFFFF" d="M860.17,165v6.96h7.561v4.021h-7.561v15.659c0,3.6,1.021,5.64,3.961,5.64c1.439,0,2.279-0.12,3.059-0.36
		l0.24,4.021c-1.02,0.359-2.639,0.72-4.68,0.72c-2.459,0-4.439-0.84-5.699-2.22c-1.439-1.62-2.039-4.2-2.039-7.62V175.98h-4.5
		v-4.021h4.5v-5.399L860.17,165z"/>
	<path fill="#FFFFFF" d="M876.129,171.959l6.301,17.159c0.719,1.92,1.439,4.2,1.92,5.94h0.119c0.541-1.74,1.141-3.96,1.859-6.06
		l5.76-17.04h5.58l-7.92,20.699c-3.779,9.96-6.359,15-9.959,18.18c-2.641,2.22-5.16,3.12-6.48,3.359l-1.318-4.38
		c1.318-0.42,3.059-1.26,4.619-2.58c1.439-1.14,3.18-3.18,4.439-5.879c0.24-0.54,0.42-0.96,0.42-1.261c0-0.3-0.119-0.72-0.42-1.38
		l-10.68-26.759H876.129z"/>
</g>
</svg>
