<?xml version="1.0" encoding="utf-8"?>
<!-- Generator: Adobe Illustrator 15.1.0, SVG Export Plug-In . SVG Version: 6.00 Build 0)  -->
<!DOCTYPE svg PUBLIC "-//W3C//DTD SVG 1.1//EN" "http://www.w3.org/Graphics/SVG/1.1/DTD/svg11.dtd">
<svg version="1.1" id="Layer_1" xmlns="http://www.w3.org/2000/svg" xmlns:xlink="http://www.w3.org/1999/xlink" x="0px" y="0px"
	 width="854.475px" height="239.519px" viewBox="73.925 268.244 854.475 239.519"
	 enable-background="new 73.925 268.244 854.475 239.519" xml:space="preserve">
<g>
	<g>
		<path fill="#1F4843" d="M175.833,268.39c1.358-0.006,2.72-0.015,4.122-0.021c2.872-0.012,5.745-0.02,8.618-0.024
			c4.31-0.011,8.62-0.052,12.931-0.09c28.161-0.134,61.146,0.869,84.303,19.039c0.796,0.62,1.593,1.241,2.413,1.88
			c18.075,16.052,22.75,42.427,24.94,65.262c0.549,9.525,0.539,19.058,0.486,28.596c-0.019,4.266,0,8.529,0.025,12.798
			c0.028,30.357-1.387,65.411-23.279,89.003c-20.718,19.008-51.675,22.676-78.628,22.788c-1.36,0.006-2.72,0.016-4.122,0.022
			c-2.872,0.012-5.745,0.018-8.617,0.024c-4.311,0.011-8.621,0.05-12.932,0.089c-31.341,0.15-65.931-1.814-89.99-24.377
			c-21.999-24.549-22.326-60.717-22.152-91.805c0.02-4.268,0-8.535-0.024-12.804c-0.032-31.373,2.187-64.536,24.741-88.542
			C118.781,271.331,149.411,268.499,175.833,268.39z"/>
		<path fill="#FFFFFF" d="M119.987,371.042c-7.189,2.174-12.435,8.859-12.435,16.747s5.246,14.572,12.435,16.748
			c4.235,18.692,15.35,34.779,30.581,45.387c11.153,7.772,22.695,10.648,31.282,10.571v-8.667v-1.904
			c-10.296,0-14.689-1.748-23.625-7.576c-17.797-11.619-29.533-31.711-29.533-54.559c0-35.981,29.144-65.126,65.126-65.126
			c35.945,0,65.088,29.145,65.088,65.126c0,5.791-0.738,11.425-2.177,16.748h10.881c7.188-2.175,12.435-8.858,12.435-16.748
			c0-7.888-5.246-14.571-12.435-16.746c-7.616-33.729-37.771-58.95-73.793-58.95C157.757,312.093,127.603,337.314,119.987,371.042
			L119.987,371.042z"/>
		<path fill="#BDF49D" d="M217.91,388.062c5.09,0,9.249-4.157,9.249-9.248c0-5.09-4.158-9.248-9.249-9.248
			c-5.091,0-9.249,4.158-9.249,9.248C208.662,383.905,212.819,388.062,217.91,388.062L217.91,388.062z"/>
		<path fill="#BDF49D" d="M169.687,388.062c5.091,0,9.249-4.157,9.249-9.248c0-5.09-4.158-9.248-9.249-9.248
			c-5.09,0-9.249,4.158-9.249,9.248C160.438,383.905,164.596,388.062,169.687,388.062L169.687,388.062z"/>
		<path fill="#BDF49D" d="M185.347,461.115c2.371,1.75,5.79,2.799,9.598,2.799c7.227,0,13.056-3.887,13.056-8.703
			c0-4.819-5.829-8.742-13.056-8.742c-3.808,0-7.228,1.088-9.598,2.798V461.115z"/>
		<path fill="#BDF49D" d="M224.67,418.605h-61.745c7.577,9.558,18.613,15.583,30.891,15.583
			C206.098,434.188,217.093,428.162,224.67,418.605L224.67,418.605z"/>
	</g>
	<path fill="#BDF49D" d="M377.659,319.954l6.617,11.305c1.93,3.446,3.723,6.755,5.515,10.064h0.276
		c1.792-3.724,3.446-7.031,5.239-10.341l5.928-11.028h22.748l-22.196,32.122l22.472,35.293h-23.712l-6.755-12.133
		c-1.93-3.309-3.584-6.756-5.239-10.201h-0.414c-1.654,3.585-3.447,6.894-5.101,10.201l-6.342,12.133h-23.023l22.885-34.328
		l-22.334-33.087H377.659z"/>
	<path fill="#FFFFFF" d="M501.014,384.887c-3.723,1.792-12.546,3.998-23.713,3.998c-32.122,0-48.666-20.128-48.666-46.598
		c0-31.709,22.61-49.219,50.734-49.219c10.891,0,19.163,2.068,22.885,4.138l-4.411,16.543c-4.136-1.792-10.063-3.446-17.646-3.446
		c-16.544,0-29.503,10.063-29.503,30.743c0,18.611,11.028,30.33,29.641,30.33c6.479,0,13.373-1.24,17.646-3.033L501.014,384.887z"/>
	<path fill="#FFFFFF" d="M578.219,352.903c0,24.679-17.509,35.982-35.568,35.982c-19.715,0-34.879-12.959-34.879-34.741
		c0-21.921,14.338-35.845,36.119-35.845C564.432,318.299,578.219,332.5,578.219,352.903z M529.416,353.592
		c0,11.58,4.825,20.266,13.786,20.266c8.271,0,13.373-8.134,13.373-20.402c0-9.928-3.86-20.128-13.373-20.128
		C533.275,333.327,529.416,343.667,529.416,353.592z"/>
	<path fill="#FFFFFF" d="M591.179,341.46c0-8.41-0.274-15.44-0.551-21.507h18.197l0.966,9.375h0.413
		c2.758-4.412,9.513-10.893,20.817-10.893c13.785,0,24.126,9.237,24.126,29.089v39.844h-20.955v-37.361
		c0-8.685-3.033-14.613-10.615-14.613c-5.79,0-9.237,3.998-10.754,7.858c-0.552,1.379-0.688,3.309-0.688,5.239v38.877h-20.956
		V341.46z"/>
	<path fill="#FFFFFF" d="M671.97,341.46c0-8.41-0.274-15.44-0.551-21.507h18.197l0.966,9.375h0.413
		c2.758-4.412,9.513-10.893,20.817-10.893c13.785,0,24.125,9.237,24.125,29.089v39.844h-20.954v-37.361
		c0-8.685-3.033-14.613-10.615-14.613c-5.79,0-9.237,3.998-10.754,7.858c-0.552,1.379-0.688,3.309-0.688,5.239v38.877H671.97V341.46
		z"/>
	<path fill="#FFFFFF" d="M768.891,360.347c0.552,8.687,9.236,12.821,19.024,12.821c7.169,0,12.959-0.965,18.612-2.896l2.757,14.199
		c-6.895,2.896-15.303,4.274-24.401,4.274c-22.886,0-35.981-13.235-35.981-34.328c0-17.095,10.614-35.982,34.052-35.982
		c21.782,0,30.055,16.957,30.055,33.64c0,3.584-0.414,6.755-0.688,8.271L768.891,360.347L768.891,360.347z M793.568,346.009
		c0-5.101-2.205-13.648-11.855-13.648c-8.823,0-12.408,8.136-12.96,13.648H793.568z"/>
	<path fill="#FFFFFF" d="M876.152,385.577c-3.724,1.792-10.754,3.171-18.75,3.171c-21.782,0-35.706-13.373-35.706-34.466
		c0-19.716,13.511-35.846,38.602-35.846c5.515,0,11.58,0.965,15.992,2.619l-3.308,15.579c-2.481-1.104-6.204-2.068-11.72-2.068
		c-11.028,0-18.197,7.858-18.061,18.889c0,12.27,8.271,18.887,18.475,18.887c4.963,0,8.823-0.827,11.993-2.205L876.152,385.577z"/>
	<path fill="#FFFFFF" d="M913.373,301.755v18.198H928.4v15.439h-15.027v24.402c0,8.134,2.068,11.854,8.271,11.854
		c2.896,0,4.272-0.138,6.204-0.551l0.139,15.854c-2.62,0.966-7.723,1.793-13.511,1.793c-6.757,0-12.408-2.345-15.855-5.79
		c-3.859-3.998-5.789-10.479-5.789-19.99v-27.572h-8.961v-15.439h8.961v-12.546L913.373,301.755z"/>
	<g>
		<path fill="#FFFFFF" d="M365.817,467.999V450.84l-12.84-23.279h6l5.7,11.16c1.5,3.061,2.76,5.521,4.02,8.339h0.12
			c1.08-2.64,2.52-5.278,4.08-8.339l5.82-11.16h5.88l-13.5,23.219V468L365.817,467.999L365.817,467.999z"/>
		<path fill="#FFFFFF" d="M410.816,453.24c0,10.739-7.5,15.42-14.459,15.42c-7.799,0-13.919-5.761-13.919-14.939
			c0-9.66,6.42-15.359,14.399-15.359C405.176,438.36,410.816,444.419,410.816,453.24z M387.837,453.54
			c0,6.358,3.6,11.159,8.76,11.159c5.04,0,8.819-4.74,8.819-11.279c0-4.92-2.459-11.101-8.7-11.101
			C390.537,442.32,387.837,448.08,387.837,453.54z"/>
		<path fill="#FFFFFF" d="M441.776,460.019c0,3.061,0.06,5.699,0.238,7.979h-4.68l-0.3-4.74h-0.12c-1.32,2.341-4.439,5.4-9.6,5.4
			c-4.561,0-10.021-2.58-10.021-12.721v-16.979h5.28v16.02c0,5.521,1.74,9.3,6.479,9.3c3.54,0,6-2.46,6.959-4.859
			c0.301-0.72,0.48-1.68,0.48-2.699v-17.76h5.28v21.059H441.776z"/>
		<path fill="#FFFFFF" d="M450.537,448.019c0-3.42-0.061-6.358-0.24-9.06h4.62l0.24,5.76h0.18c1.32-3.899,4.56-6.359,8.1-6.359
			c0.54,0,0.96,0.061,1.439,0.12v4.979c-0.539-0.12-1.079-0.12-1.8-0.12c-3.72,0-6.359,2.76-7.079,6.72
			c-0.12,0.72-0.181,1.62-0.181,2.46v15.479h-5.279V448.019z"/>
		<path fill="#FFFFFF" d="M489.776,467.999l-13.261-40.438h5.7l6.3,19.919c1.681,5.46,3.181,10.38,4.319,15.12h0.12
			c1.141-4.68,2.76-9.78,4.62-15.06l6.84-19.979h5.579l-14.459,40.438H489.776z"/>
		<path fill="#FFFFFF" d="M538.496,453.24c0,10.739-7.5,15.42-14.46,15.42c-7.8,0-13.919-5.761-13.919-14.939
			c0-9.66,6.419-15.359,14.398-15.359C532.855,438.36,538.496,444.419,538.496,453.24z M515.516,453.54
			c0,6.358,3.601,11.159,8.761,11.159c5.04,0,8.818-4.74,8.818-11.279c0-4.92-2.46-11.101-8.698-11.101
			C518.216,442.32,515.516,448.08,515.516,453.54z"/>
		<path fill="#FFFFFF" d="M551.036,430.8c0,1.8-1.26,3.239-3.36,3.239c-1.92,0-3.18-1.439-3.18-3.239s1.32-3.3,3.3-3.3
			C549.715,427.5,551.036,428.94,551.036,430.8z M545.156,467.999V438.96h5.278v29.039H545.156z"/>
		<path fill="#FFFFFF" d="M579.895,466.979c-1.38,0.659-4.438,1.681-8.34,1.681c-8.76,0-14.459-5.94-14.459-14.819
			c0-8.939,6.119-15.479,15.6-15.479c3.12,0,5.88,0.78,7.319,1.561l-1.199,4.021c-1.261-0.659-3.24-1.38-6.12-1.38
			c-6.659,0-10.26,4.979-10.26,10.979c0,6.72,4.319,10.858,10.079,10.858c3,0,4.979-0.72,6.479-1.38L579.895,466.979z"/>
		<path fill="#FFFFFF" d="M588.656,454.439c0.12,7.141,4.62,10.08,9.96,10.08c3.78,0,6.12-0.66,8.04-1.5l0.96,3.779
			c-1.86,0.84-5.102,1.86-9.72,1.86c-8.939,0-14.279-5.94-14.279-14.699c0-8.76,5.159-15.601,13.619-15.601
			c9.54,0,11.999,8.279,11.999,13.619c0,1.08-0.061,1.86-0.181,2.46L588.656,454.439L588.656,454.439z M604.135,450.66
			c0.062-3.302-1.38-8.521-7.318-8.521c-5.399,0-7.681,4.86-8.101,8.521H604.135z"/>
		<path fill="#FFFFFF" d="M611.636,475.438c1.32-3.6,2.939-10.02,3.601-14.398l5.88-0.601c-1.439,5.101-4.08,11.761-5.761,14.579
			L611.636,475.438z"/>
		<path fill="#FFFFFF" d="M674.933,447.359c0,13.86-8.459,21.301-18.778,21.301c-10.739,0-18.18-8.341-18.18-20.579
			c0-12.84,7.92-21.239,18.72-21.239C667.793,426.84,674.933,435.3,674.933,447.359z M643.495,447.959
			c0,8.699,4.68,16.438,12.959,16.438c8.28,0,12.96-7.62,12.96-16.8c0-8.1-4.2-16.499-12.899-16.499
			C647.816,431.099,643.495,439.14,643.495,447.959z"/>
		<path fill="#FFFFFF" d="M706.012,460.019c0,3.061,0.062,5.699,0.24,7.979h-4.68l-0.3-4.74h-0.12c-1.32,2.341-4.44,5.4-9.601,5.4
			c-4.561,0-10.02-2.58-10.02-12.721v-16.979h5.278v16.02c0,5.521,1.74,9.3,6.479,9.3c3.54,0,6-2.46,6.96-4.859
			c0.3-0.72,0.48-1.68,0.48-2.699v-17.76h5.278v21.059H706.012z"/>
		<path fill="#FFFFFF" d="M714.773,448.019c0-3.42-0.061-6.358-0.24-9.06h4.62l0.239,5.76h0.181c1.319-3.899,4.56-6.359,8.1-6.359
			c0.54,0,0.96,0.061,1.439,0.12v4.979c-0.539-0.12-1.079-0.12-1.8-0.12c-3.721,0-6.359,2.76-7.079,6.72
			c-0.12,0.72-0.182,1.62-0.182,2.46v15.479h-5.278V448.019z"/>
		<path fill="#FFFFFF" d="M747.292,428.041c2.521-0.42,5.82-0.78,10.021-0.78c5.159,0,8.939,1.2,11.34,3.359
			c2.16,1.92,3.54,4.859,3.54,8.46c0,3.66-1.08,6.54-3.12,8.64c-2.819,2.94-7.26,4.44-12.359,4.44c-1.56,0-3-0.062-4.2-0.36v16.199
			h-5.22L747.292,428.041L747.292,428.041z M752.512,447.54c1.142,0.3,2.58,0.42,4.32,0.42c6.3,0,10.14-3.12,10.14-8.58
			c0-5.399-3.84-7.979-9.54-7.979c-2.278,0-4.02,0.181-4.92,0.42V447.54L752.512,447.54z"/>
		<path fill="#FFFFFF" d="M778.073,448.019c0-3.42-0.062-6.358-0.24-9.06h4.62l0.24,5.76h0.18c1.32-3.899,4.56-6.359,8.1-6.359
			c0.54,0,0.96,0.061,1.44,0.12v4.979c-0.54-0.12-1.08-0.12-1.801-0.12c-3.721,0-6.359,2.76-7.079,6.72
			c-0.12,0.72-0.182,1.62-0.182,2.46v15.479h-5.278V448.019L778.073,448.019z"/>
		<path fill="#FFFFFF" d="M803.813,430.8c0,1.8-1.261,3.239-3.36,3.239c-1.92,0-3.18-1.439-3.18-3.239s1.319-3.3,3.3-3.3
			C802.492,427.5,803.813,428.94,803.813,430.8z M797.932,467.999V438.96h5.279v29.039H797.932z"/>
		<path fill="#FFFFFF" d="M838.251,453.24c0,10.739-7.5,15.42-14.46,15.42c-7.8,0-13.919-5.761-13.919-14.939
			c0-9.66,6.419-15.359,14.398-15.359C832.611,438.36,838.251,444.419,838.251,453.24z M815.271,453.54
			c0,6.358,3.601,11.159,8.761,11.159c5.04,0,8.818-4.74,8.818-11.279c0-4.92-2.46-11.101-8.698-11.101
			C817.972,442.32,815.271,448.08,815.271,453.54z"/>
		<path fill="#FFFFFF" d="M844.912,448.019c0-3.42-0.061-6.358-0.24-9.06h4.62l0.24,5.76h0.18c1.32-3.899,4.56-6.359,8.1-6.359
			c0.54,0,0.96,0.061,1.439,0.12v4.979c-0.539-0.12-1.079-0.12-1.8-0.12c-3.72,0-6.359,2.76-7.079,6.72
			c-0.12,0.72-0.181,1.62-0.181,2.46v15.479h-5.279V448.019z"/>
		<path fill="#FFFFFF" d="M870.651,430.8c0,1.8-1.261,3.239-3.36,3.239c-1.92,0-3.18-1.439-3.18-3.239s1.319-3.3,3.3-3.3
			C869.331,427.5,870.651,428.94,870.651,430.8z M864.771,467.999V438.96h5.278v29.039H864.771z"/>
		<path fill="#FFFFFF" d="M885.17,432v6.96h7.561v4.021h-7.561v15.659c0,3.601,1.021,5.64,3.961,5.64
			c1.439,0,2.279-0.119,3.06-0.359l0.239,4.021c-1.02,0.359-2.639,0.721-4.68,0.721c-2.459,0-4.439-0.841-5.699-2.221
			c-1.438-1.62-2.039-4.199-2.039-7.62V442.98h-4.5v-4.021h4.5v-5.399L885.17,432z"/>
		<path fill="#FFFFFF" d="M901.129,438.959l6.301,17.159c0.72,1.92,1.439,4.199,1.92,5.939h0.119c0.541-1.74,1.142-3.96,1.859-6.06
			l5.76-17.04h5.58l-7.92,20.699c-3.779,9.96-6.359,15-9.959,18.18c-2.641,2.22-5.16,3.12-6.479,3.358l-1.318-4.38
			c1.318-0.42,3.059-1.26,4.619-2.58c1.438-1.14,3.18-3.18,4.438-5.879c0.24-0.54,0.42-0.96,0.42-1.261c0-0.3-0.118-0.72-0.42-1.38
			l-10.68-26.759h5.76V438.959z"/>
	</g>
</g>
</svg>
