<?xml version="1.0" encoding="utf-8"?>
<!-- Generator: Adobe Illustrator 15.1.0, SVG Export Plug-In . SVG Version: 6.00 Build 0)  -->
<!DOCTYPE svg PUBLIC "-//W3C//DTD SVG 1.1//EN" "http://www.w3.org/Graphics/SVG/1.1/DTD/svg11.dtd">
<svg version="1.1" id="Layer_1" xmlns="http://www.w3.org/2000/svg" xmlns:xlink="http://www.w3.org/1999/xlink" x="0px" y="0px"
	 width="2165.936px" height="789.231px" viewBox="0 0 2165.936 789.231" enable-background="new 0 0 2165.936 789.231"
	 xml:space="preserve">
<g>
	<path fill-rule="evenodd" clip-rule="evenodd" fill="#2AB97E" d="M302.292,0l199.814,251.819
		C616.273,395.703,632.745,547.76,563,654.689c-94.935,145.521-301.917,172.992-439.174,82.426
		c30.19,1.549,61.182,2.455,92.104,2.117c112.944,34.164,247.854-0.799,315.8-104.939c75.815-116.234,19.292-260.756-58.872-359.27
		L302.292,60.056l-103.93,130.985c-7.322-10.631-14.922-21.091-22.782-31.347L302.292,0L302.292,0z M63.845,684.322
		c-7.946-9.273-15.402-19.135-22.254-29.633c-69.754-106.93-53.281-258.987,60.884-402.871l27.719-34.926
		c7.669,10.544,15.02,21.311,22.053,32.278l-20.521,25.852C53.551,373.537-2.964,518.059,72.862,634.293
		c3.676,5.629,7.571,11.037,11.621,16.27c-4.627,8.648-9.64,17.029-14.824,25.016C67.8,678.453,65.857,681.381,63.845,684.322
		L63.845,684.322z"/>
	<path fill-rule="evenodd" clip-rule="evenodd" fill="#FEDB5D" d="M440.088,548.973l-318.35,30.363
		c25.197-58.035,76.305-92.451,132.205-102.408c-4.321-26.836-11.093-54.148-17.635-75.787
		c-31.963-105.787-92.057-200.026-169.99-277.96l-16.163-16.154l32.317-32.319l16.164,16.155
		c83.773,83.783,148.072,185.307,182.045,299.125c7.253,24.303,14.566,54.553,19.078,84.227
		C353.102,477.273,405.653,501.963,440.088,548.973L440.088,548.973z M447.987,565.443c7.504,19.242,16.125,53.859,4.801,95.896
		c0,0-2.801,29.285-79.011,48.529c1.55-22.244-1.723-43.326-18.356-61.223c3.127,22.459,1.923,44.48-3.619,66.07
		c-23.907,4.58-53.504,8.17-90.074,10.074c0.028-0.836,0.625-26.104-16.924-47.191c0,0,1.443,23.051-1.625,47.99
		c-12.402,0.424-25.555,0.654-39.477,0.684c7.668-38.227-12.182-65.906-12.182-65.906c2.975,25.582-0.807,47.26-13.555,63.789
		c-32.849-0.828-84.966-1.068-125.684-4.244c0,0,51.416-58.148,66.377-123.064L447.987,565.443L447.987,565.443z"/>
	<path fill-rule="evenodd" clip-rule="evenodd" fill="#2AB97E" d="M320.889,407.818c24.668,0,44.681,20.012,44.681,44.68h1.675
		c0-24.668,20.012-44.68,44.682-44.68v-1.676c-24.67,0-44.682-20.012-44.682-44.68h-1.675c0,24.668-20.013,44.68-44.681,44.68
		V407.818L320.889,407.818z"/>
	<path fill-rule="evenodd" clip-rule="evenodd" fill="#2AB97E" d="M449.353,468.988c14.673,0,26.583,11.912,26.583,26.586h0.992
		c0-14.674,11.9-26.586,26.582-26.586v-0.99c-14.682,0-26.582-11.9-26.582-26.584h-0.992c0,14.684-11.91,26.584-26.583,26.584
		V468.988L449.353,468.988z"/>
	<path fill-rule="evenodd" clip-rule="evenodd" fill="#2AB97E" d="M443.012,358.346c9.314,9.312,9.314,24.426,0,33.742l0.636,0.633
		c9.313-9.313,24.428-9.313,33.741,0l0.635-0.633c-9.313-9.315-9.313-24.43,0-33.742l-0.635-0.637
		c-9.313,9.323-24.428,9.323-33.741,0L443.012,358.346L443.012,358.346z"/>
</g>
<g>
	<path fill="#FFFFFF" d="M765.499,450.32V152.656h78.612l61.83,109.085c17.665,31.356,34.889,68.454,48.58,102.019h0.883
		c-3.975-39.306-5.3-79.495-5.3-124.542v-86.562h61.83V450.32h-70.662l-63.596-114.825c-17.665-31.798-37.539-70.221-51.672-105.11
		h-1.767c2.208,39.748,3.092,81.703,3.092,130.283v89.652H765.499z"/>
	<path fill="#FFFFFF" d="M1118.371,363.76c1.766,27.823,29.589,41.072,60.946,41.072c22.964,0,41.513-3.091,59.621-9.274
		l8.833,45.489c-22.083,9.273-49.022,13.69-78.17,13.69c-73.313,0-115.268-42.397-115.268-109.968
		c0-54.764,34.005-115.269,109.084-115.269c69.779,0,96.277,54.322,96.277,107.761c0,11.482-1.325,21.64-2.208,26.498H1118.371z
		 M1197.424,317.829c0-16.341-7.066-43.722-37.98-43.722c-28.265,0-39.748,26.057-41.514,43.722H1197.424z"/>
	<path fill="#FFFFFF" d="M1479.634,398.208c0,20.314,0.884,40.188,3.534,52.112h-60.506l-3.975-21.64h-1.324
		c-14.133,17.224-36.215,26.498-61.83,26.498c-43.722,0-69.779-31.798-69.779-66.246c0-56.088,50.347-82.586,126.75-82.586v-2.649
		c0-11.925-6.183-28.266-39.306-28.266c-22.082,0-45.488,7.508-59.621,16.341l-12.366-43.28
		c15.016-8.392,44.605-19.433,83.912-19.433c71.988,0,94.51,42.397,94.51,93.628V398.208z M1414.713,348.303
		c-35.331,0-62.713,8.391-62.713,34.006c0,17.224,11.483,25.615,26.499,25.615c16.341,0,30.473-11.041,34.89-24.731
		c0.883-3.533,1.324-7.508,1.324-11.483V348.303z"/>
	<path fill="#FFFFFF" d="M1604.623,176.063v58.296h48.139v49.464h-48.139v78.17c0,26.057,6.624,37.98,26.498,37.98
		c9.274,0,13.69-0.441,19.874-1.766l0.441,50.788c-8.392,3.091-24.731,5.741-43.28,5.741c-21.641,0-39.748-7.508-50.789-18.549
		c-12.365-12.808-18.549-33.564-18.549-64.037v-88.328h-28.707v-49.464h28.707V194.17L1604.623,176.063z"/>
	<path fill="#FFFFFF" d="M1760.96,174.297c0,18.549-13.69,33.564-36.214,33.564c-21.199,0-34.889-15.016-34.889-33.564
		c0-18.99,14.132-33.564,35.771-33.564C1747.27,140.732,1760.52,155.307,1760.96,174.297z M1691.623,450.32V234.359h67.129V450.32
		H1691.623z"/>
	<path fill="#FFFFFF" d="M1820.577,450.32V283.823h-28.706v-49.464h28.706v-8.391c0-26.057,7.95-54.764,26.94-72.429
		c17.224-15.899,40.188-21.641,60.063-21.641c14.574,0,26.057,2.208,35.331,4.416l-2.649,51.672
		c-5.742-1.767-12.808-3.092-21.641-3.092c-22.082,0-31.355,17.225-31.355,38.423v11.041h43.28v49.464h-42.84V450.32H1820.577z"/>
	<path fill="#FFFFFF" d="M2013.57,234.359l32.239,106.436c3.533,12.365,7.949,28.706,10.6,40.188h1.767
		c2.649-11.924,6.183-27.823,9.273-40.631l26.941-105.993h71.545l-50.348,142.208c-30.914,86.119-51.671,120.125-75.961,141.766
		c-22.966,20.315-47.697,27.823-64.479,29.59l-14.574-56.53c8.392-1.766,18.99-5.74,29.148-11.481
		c10.158-5.3,21.64-16.341,27.823-26.94c2.208-3.533,3.533-7.066,3.533-9.717c0-2.649-0.442-5.74-2.65-11.04l-79.494-197.854
		H2013.57z"/>
</g>
<g>
	<path fill="#FFFFFF" d="M859.709,607.975c-0.804-15.112-1.769-33.439-1.769-46.784h-0.322c-3.858,12.54-8.199,26.206-13.665,41.157
		l-19.131,52.572h-10.611l-17.685-51.607c-5.145-15.434-9.325-29.26-12.379-42.122h-0.321c-0.321,13.506-1.125,31.511-2.09,47.91
		l-2.894,46.462h-13.344l7.556-108.358H790.9l18.488,52.41c4.501,13.345,8.038,25.241,10.932,36.495h0.322
		c2.894-10.932,6.752-22.83,11.575-36.495l19.292-52.41h17.846l6.752,108.358h-13.826L859.709,607.975z"/>
	<path fill="#FFFFFF" d="M913.563,621.479l-11.253,34.083h-14.47l36.977-108.358h16.72l36.977,108.358h-14.952l-11.575-34.083
		H913.563z M949.254,610.547l-10.771-31.188c-2.412-7.074-4.02-13.505-5.627-19.775h-0.321c-1.607,6.271-3.216,13.023-5.466,19.614
		l-10.611,31.35H949.254z"/>
	<path fill="#FFFFFF" d="M994.429,547.204h13.987v52.251h0.482c2.894-4.18,5.788-8.04,8.521-11.576l33.119-40.675h17.362
		l-39.227,45.98l42.282,62.378h-16.559l-35.53-53.215l-10.45,11.897v41.317h-13.987V547.204z"/>
	<path fill="#FFFFFF" d="M1137.511,604.76h-41.96v39.066h46.945v11.736h-61.093V547.204h58.681v11.737h-44.533v34.243h41.96V604.76z
		"/>
	<path fill="#FFFFFF" d="M1208.728,547.204v108.358h-14.148V547.204H1208.728z"/>
	<path fill="#FFFFFF" d="M1253.742,559.101h-32.958v-11.896h80.225v11.896h-33.119v96.462h-14.147V559.101z"/>
	<path fill="#FFFFFF" d="M1422.706,652.187c-4.984,2.572-15.434,5.145-28.617,5.145c-30.546,0-53.375-19.293-53.375-54.983
		c0-34.082,22.99-56.912,56.591-56.912c13.344,0,22.025,2.895,25.723,4.823l-3.538,11.415c-5.145-2.573-12.701-4.502-21.704-4.502
		c-25.4,0-42.282,16.238-42.282,44.694c0,26.687,15.272,43.567,41.479,43.567c8.682,0,17.362-1.768,22.989-4.501L1422.706,652.187z"
		/>
	<path fill="#FFFFFF" d="M1440.227,547.204h14.148v96.622h46.301v11.736h-60.45V547.204z"/>
	<path fill="#FFFFFF" d="M1572.215,604.76h-41.961v39.066h46.944v11.736h-61.092V547.204h58.683v11.737h-44.535v34.243h41.961
		V604.76z"/>
	<path fill="#FFFFFF" d="M1612.886,621.479l-11.253,34.083h-14.471l36.979-108.358h16.721l36.977,108.358h-14.953l-11.574-34.083
		H1612.886z M1648.577,610.547l-10.771-31.188c-2.412-7.074-4.021-13.505-5.629-19.775h-0.321
		c-1.606,6.271-3.215,13.023-5.465,19.614l-10.61,31.35H1648.577z"/>
	<path fill="#FFFFFF" d="M1693.752,655.563V547.204h15.434l34.565,54.822c7.878,12.701,14.309,24.116,19.294,35.208l0.481-0.16
		c-1.286-14.469-1.608-27.651-1.608-44.532v-45.338h13.183v108.358h-14.147l-34.404-54.982
		c-7.555-12.059-14.79-24.438-20.096-36.174l-0.482,0.16c0.804,13.666,0.964,26.688,0.964,44.694v46.302H1693.752z"/>
	<path fill="#FFFFFF" d="M1795.676,647.202c0-5.788,4.021-10.128,9.646-10.128c5.628,0,9.486,4.18,9.486,10.128
		c0,5.788-3.858,10.129-9.808,10.129C1799.534,657.331,1795.676,652.99,1795.676,647.202z"/>
</g>
</svg>
